<svg width="130" height="90" viewBox="0 0 130 90" fill="none" xmlns="http://www.w3.org/2000/svg">
<path d="M16.14 48.7C15.2 49.16 14.17 49.52 13.05 49.78C14.17 50.04 15.2 50.4 16.14 50.86L27.03 56.47C27.49 56.69 27.82 56.97 28.02 57.31C28.22 57.65 28.32 58.02 28.32 58.42V63.7L4.53 51.28V48.28L28.32 35.89V41.17C28.32 41.57 28.22 41.94 28.02 42.28C27.82 42.6 27.49 42.88 27.03 43.12L16.14 48.7Z" fill="#F1C013"/>
<path d="M58.6856 52.86C56.5456 52.96 54.7456 53.15 53.2856 53.43C51.8256 53.69 50.6556 54.03 49.7756 54.45C48.8956 54.87 48.2656 55.36 47.8856 55.92C47.5056 56.48 47.3156 57.09 47.3156 57.75C47.3156 59.05 47.6956 59.98 48.4556 60.54C49.2356 61.1 50.2456 61.38 51.4856 61.38C53.0056 61.38 54.3156 61.11 55.4156 60.57C56.5356 60.01 57.6256 59.17 58.6856 58.05V52.86ZM41.7056 39.51C45.2456 36.27 49.5056 34.65 54.4856 34.65C56.2856 34.65 57.8956 34.95 59.3156 35.55C60.7356 36.13 61.9356 36.95 62.9156 38.01C63.8956 39.05 64.6356 40.3 65.1356 41.76C65.6556 43.22 65.9156 44.82 65.9156 46.56V66H62.5556C61.8556 66 61.3156 65.9 60.9356 65.7C60.5556 65.48 60.2556 65.05 60.0356 64.41L59.3756 62.19C58.5956 62.89 57.8356 63.51 57.0956 64.05C56.3556 64.57 55.5856 65.01 54.7856 65.37C53.9856 65.73 53.1256 66 52.2056 66.18C51.3056 66.38 50.3056 66.48 49.2056 66.48C47.9056 66.48 46.7056 66.31 45.6056 65.97C44.5056 65.61 43.5556 65.08 42.7556 64.38C41.9556 63.68 41.3356 62.81 40.8956 61.77C40.4556 60.73 40.2356 59.52 40.2356 58.14C40.2356 57.36 40.3656 56.59 40.6256 55.83C40.8856 55.05 41.3056 54.31 41.8856 53.61C42.4856 52.91 43.2556 52.25 44.1956 51.63C45.1356 51.01 46.2856 50.47 47.6456 50.01C49.0256 49.55 50.6256 49.18 52.4456 48.9C54.2656 48.6 56.3456 48.42 58.6856 48.36V46.56C58.6856 44.5 58.2456 42.98 57.3656 42C56.4856 41 55.2156 40.5 53.5556 40.5C52.3556 40.5 51.3556 40.64 50.5556 40.92C49.7756 41.2 49.0856 41.52 48.4856 41.88C47.8856 42.22 47.3356 42.53 46.8356 42.81C46.3556 43.09 45.8156 43.23 45.2156 43.23C44.6956 43.23 44.2556 43.1 43.8956 42.84C43.5356 42.56 43.2456 42.24 43.0256 41.88L41.7056 39.51Z" fill="white"/>
<path d="M81.82 70.09C81.48 71.01 80.93 71.7 80.17 72.16C79.43 72.62 78.67 72.85 77.89 72.85H74.74L92.26 28.03C92.58 27.19 93.07 26.55 93.73 26.11C94.39 25.65 95.16 25.42 96.04 25.42H99.22L81.82 70.09ZM125.219 48.28V51.28L101.429 63.7V58.42C101.429 58.02 101.529 57.65 101.729 57.31C101.929 56.97 102.259 56.69 102.719 56.47L113.609 50.86C114.549 50.4 115.579 50.04 116.699 49.78C115.579 49.52 114.549 49.16 113.609 48.7L102.719 43.12C102.259 42.88 101.929 42.6 101.729 42.28C101.529 41.94 101.429 41.57 101.429 41.17V35.89L125.219 48.28Z" fill="#F1C013"/>
</svg>
