<svg width="1287" height="295" viewBox="0 0 1287 295" fill="none" xmlns="http://www.w3.org/2000/svg">
<path d="M48.42 132.1C45.6 133.48 42.51 134.56 39.15 135.34C42.51 136.12 45.6 137.2 48.42 138.58L81.09 155.41C82.47 156.07 83.46 156.91 84.06 157.93C84.66 158.95 84.96 160.06 84.96 161.26V177.1L13.59 139.84V130.84L84.96 93.67V109.51C84.96 110.71 84.66 111.82 84.06 112.84C83.46 113.8 82.47 114.64 81.09 115.36L48.42 132.1Z" fill="#F1C013"/>
<path d="M201.254 138.58C194.834 138.88 189.434 139.45 185.054 140.29C180.674 141.07 177.164 142.09 174.524 143.35C171.884 144.61 169.994 146.08 168.854 147.76C167.714 149.44 167.144 151.27 167.144 153.25C167.144 157.15 168.284 159.94 170.564 161.62C172.904 163.3 175.934 164.14 179.654 164.14C184.214 164.14 188.144 163.33 191.444 161.71C194.804 160.03 198.074 157.51 201.254 154.15V138.58ZM150.314 98.53C160.934 88.81 173.714 83.95 188.654 83.95C194.054 83.95 198.884 84.85 203.144 86.65C207.404 88.39 211.004 90.85 213.944 94.03C216.884 97.15 219.104 100.9 220.604 105.28C222.164 109.66 222.944 114.46 222.944 119.68V178H212.864C210.764 178 209.144 177.7 208.004 177.1C206.864 176.44 205.964 175.15 205.304 173.23L203.324 166.57C200.984 168.67 198.704 170.53 196.484 172.15C194.264 173.71 191.954 175.03 189.554 176.11C187.154 177.19 184.574 178 181.814 178.54C179.114 179.14 176.114 179.44 172.814 179.44C168.914 179.44 165.314 178.93 162.014 177.91C158.714 176.83 155.864 175.24 153.464 173.14C151.064 171.04 149.204 168.43 147.884 165.31C146.564 162.19 145.904 158.56 145.904 154.42C145.904 152.08 146.294 149.77 147.074 147.49C147.854 145.15 149.114 142.93 150.854 140.83C152.654 138.73 154.964 136.75 157.784 134.89C160.604 133.03 164.054 131.41 168.134 130.03C172.274 128.65 177.074 127.54 182.534 126.7C187.994 125.8 194.234 125.26 201.254 125.08V119.68C201.254 113.5 199.934 108.94 197.294 106C194.654 103 190.844 101.5 185.864 101.5C182.264 101.5 179.264 101.92 176.864 102.76C174.524 103.6 172.454 104.56 170.654 105.64C168.854 106.66 167.204 107.59 165.704 108.43C164.264 109.27 162.644 109.69 160.844 109.69C159.284 109.69 157.964 109.3 156.884 108.52C155.804 107.68 154.934 106.72 154.274 105.64L150.314 98.53ZM264.67 97C266.53 95.14 268.48 93.43 270.52 91.87C272.62 90.25 274.81 88.9 277.09 87.82C279.43 86.68 281.92 85.81 284.56 85.21C287.2 84.55 290.08 84.22 293.2 84.22C298.24 84.22 302.71 85.09 306.61 86.83C310.51 88.51 313.75 90.91 316.33 94.03C318.97 97.09 320.95 100.78 322.27 105.1C323.65 109.36 324.34 114.07 324.34 119.23V178H302.11V119.23C302.11 113.59 300.82 109.24 298.24 106.18C295.66 103.06 291.73 101.5 286.45 101.5C282.61 101.5 279.01 102.37 275.65 104.11C272.29 105.85 269.11 108.22 266.11 111.22V178H243.88V85.66H257.47C260.35 85.66 262.24 87.01 263.14 89.71L264.67 97ZM379.232 129.58C381.992 129.58 384.392 129.22 386.432 128.5C388.472 127.72 390.152 126.67 391.472 125.35C392.852 124.03 393.872 122.44 394.532 120.58C395.252 118.72 395.612 116.68 395.612 114.46C395.612 109.9 394.232 106.3 391.472 103.66C388.772 100.96 384.692 99.61 379.232 99.61C373.772 99.61 369.662 100.96 366.902 103.66C364.202 106.3 362.852 109.9 362.852 114.46C362.852 116.62 363.182 118.63 363.842 120.49C364.562 122.35 365.582 123.97 366.902 125.35C368.282 126.67 369.992 127.72 372.032 128.5C374.132 129.22 376.532 129.58 379.232 129.58ZM404.342 182.14C404.342 180.34 403.802 178.87 402.722 177.73C401.642 176.59 400.172 175.72 398.312 175.12C396.452 174.46 394.262 173.98 391.742 173.68C389.282 173.38 386.642 173.17 383.822 173.05C381.062 172.87 378.182 172.72 375.182 172.6C372.242 172.48 369.362 172.24 366.542 171.88C364.082 173.26 362.072 174.88 360.512 176.74C359.012 178.6 358.262 180.76 358.262 183.22C358.262 184.84 358.652 186.34 359.432 187.72C360.272 189.16 361.562 190.39 363.302 191.41C365.102 192.43 367.412 193.21 370.232 193.75C373.052 194.35 376.502 194.65 380.582 194.65C384.722 194.65 388.292 194.32 391.292 193.66C394.292 193.06 396.752 192.19 398.672 191.05C400.652 189.97 402.092 188.65 402.992 187.09C403.892 185.59 404.342 183.94 404.342 182.14ZM426.482 88.81V97.09C426.482 99.73 424.892 101.35 421.712 101.95L413.432 103.48C414.692 106.66 415.322 110.14 415.322 113.92C415.322 118.48 414.392 122.62 412.532 126.34C410.732 130 408.212 133.12 404.972 135.7C401.732 138.28 397.892 140.29 393.452 141.73C389.072 143.11 384.332 143.8 379.232 143.8C377.432 143.8 375.692 143.71 374.012 143.53C372.332 143.35 370.682 143.11 369.062 142.81C366.182 144.55 364.742 146.5 364.742 148.66C364.742 150.52 365.582 151.9 367.262 152.8C369.002 153.64 371.282 154.24 374.102 154.6C376.922 154.96 380.132 155.2 383.732 155.32C387.332 155.38 391.022 155.56 394.802 155.86C398.582 156.16 402.272 156.7 405.872 157.48C409.472 158.2 412.682 159.37 415.502 160.99C418.322 162.61 420.572 164.83 422.252 167.65C423.992 170.41 424.862 173.98 424.862 178.36C424.862 182.44 423.842 186.4 421.802 190.24C419.822 194.08 416.912 197.5 413.072 200.5C409.292 203.5 404.612 205.9 399.032 207.7C393.512 209.56 387.212 210.49 380.132 210.49C373.172 210.49 367.112 209.8 361.952 208.42C356.792 207.1 352.502 205.3 349.082 203.02C345.662 200.8 343.112 198.22 341.432 195.28C339.752 192.34 338.912 189.28 338.912 186.1C338.912 181.78 340.202 178.18 342.782 175.3C345.422 172.36 349.022 170.02 353.582 168.28C351.122 167.02 349.172 165.34 347.732 163.24C346.292 161.14 345.572 158.38 345.572 154.96C345.572 153.58 345.812 152.17 346.292 150.73C346.832 149.23 347.582 147.76 348.542 146.32C349.562 144.88 350.822 143.53 352.322 142.27C353.822 140.95 355.592 139.78 357.632 138.76C352.952 136.24 349.262 132.88 346.562 128.68C343.922 124.48 342.602 119.56 342.602 113.92C342.602 109.36 343.502 105.25 345.302 101.59C347.162 97.87 349.712 94.72 352.952 92.14C356.252 89.5 360.122 87.49 364.562 86.11C369.062 84.73 373.952 84.04 379.232 84.04C383.192 84.04 386.912 84.46 390.392 85.3C393.872 86.08 397.052 87.25 399.932 88.81H426.482ZM463.08 44.26V178H440.85V44.26H463.08ZM544.718 121.21C544.718 118.33 544.298 115.63 543.458 113.11C542.678 110.53 541.478 108.28 539.858 106.36C538.238 104.44 536.168 102.94 533.648 101.86C531.188 100.72 528.308 100.15 525.008 100.15C518.588 100.15 513.518 101.98 509.798 105.64C506.138 109.3 503.798 114.49 502.778 121.21H544.718ZM502.328 134.62C502.688 139.36 503.528 143.47 504.848 146.95C506.168 150.37 507.908 153.22 510.068 155.5C512.228 157.72 514.778 159.4 517.718 160.54C520.718 161.62 524.018 162.16 527.618 162.16C531.218 162.16 534.308 161.74 536.888 160.9C539.528 160.06 541.808 159.13 543.728 158.11C545.708 157.09 547.418 156.16 548.858 155.32C550.358 154.48 551.798 154.06 553.178 154.06C555.038 154.06 556.418 154.75 557.318 156.13L563.708 164.23C561.248 167.11 558.488 169.54 555.428 171.52C552.368 173.44 549.158 175 545.798 176.2C542.498 177.34 539.108 178.15 535.628 178.63C532.208 179.11 528.878 179.35 525.638 179.35C519.218 179.35 513.248 178.3 507.728 176.2C502.208 174.04 497.408 170.89 493.328 166.75C489.248 162.55 486.038 157.39 483.698 151.27C481.358 145.09 480.188 137.95 480.188 129.85C480.188 123.55 481.208 117.64 483.248 112.12C485.288 106.54 488.198 101.71 491.978 97.63C495.818 93.49 500.468 90.22 505.928 87.82C511.448 85.42 517.658 84.22 524.558 84.22C530.378 84.22 535.748 85.15 540.668 87.01C545.588 88.87 549.818 91.6 553.358 95.2C556.898 98.74 559.658 103.12 561.638 108.34C563.678 113.5 564.698 119.41 564.698 126.07C564.698 129.43 564.338 131.71 563.618 132.91C562.898 134.05 561.518 134.62 559.478 134.62H502.328ZM603.61 154.06C606.13 157.12 608.86 159.28 611.8 160.54C614.8 161.8 617.95 162.43 621.25 162.43C624.67 162.43 627.73 161.83 630.43 160.63C633.19 159.37 635.53 157.45 637.45 154.87C639.37 152.23 640.84 148.9 641.86 144.88C642.88 140.8 643.39 135.94 643.39 130.3C643.39 120.16 641.71 112.84 638.35 108.34C634.99 103.78 630.16 101.5 623.86 101.5C619.6 101.5 615.88 102.49 612.7 104.47C609.52 106.39 606.49 109.12 603.61 112.66V154.06ZM603.61 97C607.33 93.1 611.44 90.01 615.94 87.73C620.5 85.39 625.69 84.22 631.51 84.22C636.85 84.22 641.65 85.27 645.91 87.37C650.23 89.47 653.89 92.5 656.89 96.46C659.95 100.36 662.29 105.1 663.91 110.68C665.53 116.26 666.34 122.53 666.34 129.49C666.34 136.99 665.41 143.8 663.55 149.92C661.69 156.04 659.02 161.29 655.54 165.67C652.12 169.99 647.98 173.35 643.12 175.75C638.26 178.15 632.86 179.35 626.92 179.35C624.04 179.35 621.43 179.05 619.09 178.45C616.75 177.91 614.59 177.13 612.61 176.11C610.63 175.09 608.8 173.86 607.12 172.42C605.5 170.92 603.94 169.27 602.44 167.47L601.45 173.68C601.09 175.24 600.46 176.35 599.56 177.01C598.72 177.67 597.55 178 596.05 178H581.38V44.26H603.61V97ZM704.479 101.68C707.359 96.16 710.779 91.84 714.739 88.72C718.699 85.54 723.379 83.95 728.779 83.95C733.039 83.95 736.459 84.88 739.039 86.74L737.599 103.39C737.299 104.47 736.849 105.25 736.249 105.73C735.709 106.15 734.959 106.36 733.999 106.36C733.099 106.36 731.749 106.21 729.949 105.91C728.209 105.61 726.499 105.46 724.819 105.46C722.359 105.46 720.169 105.82 718.249 106.54C716.329 107.26 714.589 108.31 713.029 109.69C711.529 111.01 710.179 112.63 708.979 114.55C707.839 116.47 706.759 118.66 705.739 121.12V178H683.509V85.66H696.559C698.839 85.66 700.429 86.08 701.329 86.92C702.229 87.7 702.829 89.14 703.129 91.24L704.479 101.68ZM798.207 138.58C791.787 138.88 786.387 139.45 782.007 140.29C777.627 141.07 774.117 142.09 771.477 143.35C768.837 144.61 766.947 146.08 765.807 147.76C764.667 149.44 764.097 151.27 764.097 153.25C764.097 157.15 765.237 159.94 767.517 161.62C769.857 163.3 772.887 164.14 776.607 164.14C781.167 164.14 785.097 163.33 788.397 161.71C791.757 160.03 795.027 157.51 798.207 154.15V138.58ZM747.267 98.53C757.887 88.81 770.667 83.95 785.607 83.95C791.007 83.95 795.837 84.85 800.097 86.65C804.357 88.39 807.957 90.85 810.897 94.03C813.837 97.15 816.057 100.9 817.557 105.28C819.117 109.66 819.897 114.46 819.897 119.68V178H809.817C807.717 178 806.097 177.7 804.957 177.1C803.817 176.44 802.917 175.15 802.257 173.23L800.277 166.57C797.937 168.67 795.657 170.53 793.437 172.15C791.217 173.71 788.907 175.03 786.507 176.11C784.107 177.19 781.527 178 778.767 178.54C776.067 179.14 773.067 179.44 769.767 179.44C765.867 179.44 762.267 178.93 758.967 177.91C755.667 176.83 752.817 175.24 750.417 173.14C748.017 171.04 746.157 168.43 744.837 165.31C743.517 162.19 742.857 158.56 742.857 154.42C742.857 152.08 743.247 149.77 744.027 147.49C744.807 145.15 746.067 142.93 747.807 140.83C749.607 138.73 751.917 136.75 754.737 134.89C757.557 133.03 761.007 131.41 765.087 130.03C769.227 128.65 774.027 127.54 779.487 126.7C784.947 125.8 791.187 125.26 798.207 125.08V119.68C798.207 113.5 796.887 108.94 794.247 106C791.607 103 787.797 101.5 782.817 101.5C779.217 101.5 776.217 101.92 773.817 102.76C771.477 103.6 769.407 104.56 767.607 105.64C765.807 106.66 764.157 107.59 762.657 108.43C761.217 109.27 759.597 109.69 757.797 109.69C756.237 109.69 754.917 109.3 753.837 108.52C752.757 107.68 751.887 106.72 751.227 105.64L747.267 98.53ZM863.064 44.26V120.85H867.204C868.704 120.85 869.874 120.67 870.714 120.31C871.614 119.89 872.514 119.08 873.414 117.88L896.364 89.53C897.324 88.27 898.374 87.31 899.514 86.65C900.714 85.99 902.244 85.66 904.104 85.66H924.444L895.734 119.95C893.694 122.65 891.474 124.72 889.074 126.16C890.334 127.06 891.444 128.11 892.404 129.31C893.424 130.51 894.384 131.8 895.284 133.18L926.064 178H905.994C904.254 178 902.754 177.73 901.494 177.19C900.234 176.59 899.184 175.54 898.344 174.04L874.764 139.03C873.924 137.65 873.054 136.75 872.154 136.33C871.254 135.91 869.904 135.7 868.104 135.7H863.064V178H840.834V44.26H863.064ZM991.73 121.21C991.73 118.33 991.31 115.63 990.47 113.11C989.69 110.53 988.49 108.28 986.87 106.36C985.25 104.44 983.18 102.94 980.66 101.86C978.2 100.72 975.32 100.15 972.02 100.15C965.6 100.15 960.53 101.98 956.81 105.64C953.15 109.3 950.81 114.49 949.79 121.21H991.73ZM949.34 134.62C949.7 139.36 950.54 143.47 951.86 146.95C953.18 150.37 954.92 153.22 957.08 155.5C959.24 157.72 961.79 159.4 964.73 160.54C967.73 161.62 971.03 162.16 974.63 162.16C978.23 162.16 981.32 161.74 983.9 160.9C986.54 160.06 988.82 159.13 990.74 158.11C992.72 157.09 994.43 156.16 995.87 155.32C997.37 154.48 998.81 154.06 1000.19 154.06C1002.05 154.06 1003.43 154.75 1004.33 156.13L1010.72 164.23C1008.26 167.11 1005.5 169.54 1002.44 171.52C999.38 173.44 996.17 175 992.81 176.2C989.51 177.34 986.12 178.15 982.64 178.63C979.22 179.11 975.89 179.35 972.65 179.35C966.23 179.35 960.26 178.3 954.74 176.2C949.22 174.04 944.42 170.89 940.34 166.75C936.26 162.55 933.05 157.39 930.71 151.27C928.37 145.09 927.2 137.95 927.2 129.85C927.2 123.55 928.22 117.64 930.26 112.12C932.3 106.54 935.21 101.71 938.99 97.63C942.83 93.49 947.48 90.22 952.94 87.82C958.46 85.42 964.67 84.22 971.57 84.22C977.39 84.22 982.76 85.15 987.68 87.01C992.6 88.87 996.83 91.6 1000.37 95.2C1003.91 98.74 1006.67 103.12 1008.65 108.34C1010.69 113.5 1011.71 119.41 1011.71 126.07C1011.71 129.43 1011.35 131.71 1010.63 132.91C1009.91 134.05 1008.53 134.62 1006.49 134.62H949.34ZM1058.29 179.44C1050.25 179.44 1044.07 177.19 1039.75 172.69C1035.49 168.13 1033.36 161.86 1033.36 153.88V102.31H1023.91C1022.71 102.31 1021.69 101.92 1020.85 101.14C1020.01 100.36 1019.59 99.19 1019.59 97.63V88.81L1034.44 86.38L1039.12 61.18C1039.42 59.98 1039.99 59.05 1040.83 58.39C1041.67 57.73 1042.75 57.4 1044.07 57.4H1055.59V86.47H1080.25V102.31H1055.59V152.35C1055.59 155.23 1056.28 157.48 1057.66 159.1C1059.1 160.72 1061.05 161.53 1063.51 161.53C1064.89 161.53 1066.03 161.38 1066.93 161.08C1067.89 160.72 1068.7 160.36 1069.36 160C1070.08 159.64 1070.71 159.31 1071.25 159.01C1071.79 158.65 1072.33 158.47 1072.87 158.47C1073.53 158.47 1074.07 158.65 1074.49 159.01C1074.91 159.31 1075.36 159.79 1075.84 160.45L1082.5 171.25C1079.26 173.95 1075.54 175.99 1071.34 177.37C1067.14 178.75 1062.79 179.44 1058.29 179.44Z" fill="white"/>
<path d="M1138.46 188.27C1137.44 191.03 1135.79 193.1 1133.51 194.48C1131.29 195.86 1129.01 196.55 1126.67 196.55H1117.22L1169.78 62.09C1170.74 59.57 1172.21 57.65 1174.19 56.33C1176.17 54.95 1178.48 54.26 1181.12 54.26H1190.66L1138.46 188.27ZM1268.66 122.84V131.84L1197.29 169.1V153.26C1197.29 152.06 1197.59 150.95 1198.19 149.93C1198.79 148.91 1199.78 148.07 1201.16 147.41L1233.83 130.58C1236.65 129.2 1239.74 128.12 1243.1 127.34C1239.74 126.56 1236.65 125.48 1233.83 124.1L1201.16 107.36C1199.78 106.64 1198.79 105.8 1198.19 104.84C1197.59 103.82 1197.29 102.71 1197.29 101.51V85.67L1268.66 122.84Z" fill="#F1C013"/>
</svg>
