<svg width="150" height="37" viewBox="0 0 150 37" fill="none" xmlns="http://www.w3.org/2000/svg">
<path d="M52.3754 19.058C51.7334 19.088 51.1934 19.145 50.7554 19.229C50.3174 19.307 49.9664 19.409 49.7024 19.535C49.4384 19.661 49.2494 19.808 49.1354 19.976C49.0214 20.144 48.9644 20.327 48.9644 20.525C48.9644 20.915 49.0784 21.194 49.3064 21.362C49.5404 21.53 49.8434 21.614 50.2154 21.614C50.6714 21.614 51.0644 21.533 51.3944 21.371C51.7304 21.203 52.0574 20.951 52.3754 20.615V19.058ZM47.2814 15.053C48.3434 14.081 49.6214 13.595 51.1154 13.595C51.6554 13.595 52.1384 13.685 52.5644 13.865C52.9904 14.039 53.3504 14.285 53.6444 14.603C53.9384 14.915 54.1604 15.29 54.3104 15.728C54.4664 16.166 54.5444 16.646 54.5444 17.168V23H53.5364C53.3264 23 53.1644 22.97 53.0504 22.91C52.9364 22.844 52.8464 22.715 52.7804 22.523L52.5824 21.857C52.3484 22.067 52.1204 22.253 51.8984 22.415C51.6764 22.571 51.4454 22.703 51.2054 22.811C50.9654 22.919 50.7074 23 50.4314 23.054C50.1614 23.114 49.8614 23.144 49.5314 23.144C49.1414 23.144 48.7814 23.093 48.4514 22.991C48.1214 22.883 47.8364 22.724 47.5964 22.514C47.3564 22.304 47.1704 22.043 47.0384 21.731C46.9064 21.419 46.8404 21.056 46.8404 20.642C46.8404 20.408 46.8794 20.177 46.9574 19.949C47.0354 19.715 47.1614 19.493 47.3354 19.283C47.5154 19.073 47.7464 18.875 48.0284 18.689C48.3104 18.503 48.6554 18.341 49.0634 18.203C49.4774 18.065 49.9574 17.954 50.5034 17.87C51.0494 17.78 51.6734 17.726 52.3754 17.708V17.168C52.3754 16.55 52.2434 16.094 51.9794 15.8C51.7154 15.5 51.3344 15.35 50.8364 15.35C50.4764 15.35 50.1764 15.392 49.9364 15.476C49.7024 15.56 49.4954 15.656 49.3154 15.764C49.1354 15.866 48.9704 15.959 48.8204 16.043C48.6764 16.127 48.5144 16.169 48.3344 16.169C48.1784 16.169 48.0464 16.13 47.9384 16.052C47.8304 15.968 47.7434 15.872 47.6774 15.764L47.2814 15.053ZM58.717 14.9C58.903 14.714 59.098 14.543 59.302 14.387C59.512 14.225 59.731 14.09 59.959 13.982C60.193 13.868 60.442 13.781 60.706 13.721C60.97 13.655 61.258 13.622 61.57 13.622C62.074 13.622 62.521 13.709 62.911 13.883C63.301 14.051 63.625 14.291 63.883 14.603C64.147 14.909 64.345 15.278 64.477 15.71C64.615 16.136 64.684 16.607 64.684 17.123V23H62.461V17.123C62.461 16.559 62.332 16.124 62.074 15.818C61.816 15.506 61.423 15.35 60.895 15.35C60.511 15.35 60.151 15.437 59.815 15.611C59.479 15.785 59.161 16.022 58.861 16.322V23H56.638V13.766H57.997C58.285 13.766 58.474 13.901 58.564 14.171L58.717 14.9ZM70.1732 18.158C70.4492 18.158 70.6892 18.122 70.8932 18.05C71.0972 17.972 71.2652 17.867 71.3972 17.735C71.5352 17.603 71.6372 17.444 71.7032 17.258C71.7752 17.072 71.8112 16.868 71.8112 16.646C71.8112 16.19 71.6732 15.83 71.3972 15.566C71.1272 15.296 70.7192 15.161 70.1732 15.161C69.6272 15.161 69.2162 15.296 68.9402 15.566C68.6702 15.83 68.5352 16.19 68.5352 16.646C68.5352 16.862 68.5682 17.063 68.6342 17.249C68.7062 17.435 68.8082 17.597 68.9402 17.735C69.0782 17.867 69.2492 17.972 69.4532 18.05C69.6632 18.122 69.9032 18.158 70.1732 18.158ZM72.6842 23.414C72.6842 23.234 72.6302 23.087 72.5222 22.973C72.4142 22.859 72.2672 22.772 72.0812 22.712C71.8952 22.646 71.6762 22.598 71.4242 22.568C71.1782 22.538 70.9142 22.517 70.6322 22.505C70.3562 22.487 70.0682 22.472 69.7682 22.46C69.4742 22.448 69.1862 22.424 68.9042 22.388C68.6582 22.526 68.4572 22.688 68.3012 22.874C68.1512 23.06 68.0762 23.276 68.0762 23.522C68.0762 23.684 68.1152 23.834 68.1932 23.972C68.2772 24.116 68.4062 24.239 68.5802 24.341C68.7602 24.443 68.9912 24.521 69.2732 24.575C69.5552 24.635 69.9002 24.665 70.3082 24.665C70.7222 24.665 71.0792 24.632 71.3792 24.566C71.6792 24.506 71.9252 24.419 72.1172 24.305C72.3152 24.197 72.4592 24.065 72.5492 23.909C72.6392 23.759 72.6842 23.594 72.6842 23.414ZM74.8982 14.081V14.909C74.8982 15.173 74.7392 15.335 74.4212 15.395L73.5932 15.548C73.7192 15.866 73.7822 16.214 73.7822 16.592C73.7822 17.048 73.6892 17.462 73.5032 17.834C73.3232 18.2 73.0712 18.512 72.7472 18.77C72.4232 19.028 72.0392 19.229 71.5952 19.373C71.1572 19.511 70.6832 19.58 70.1732 19.58C69.9932 19.58 69.8192 19.571 69.6512 19.553C69.4832 19.535 69.3182 19.511 69.1562 19.481C68.8682 19.655 68.7242 19.85 68.7242 20.066C68.7242 20.252 68.8082 20.39 68.9762 20.48C69.1502 20.564 69.3782 20.624 69.6602 20.66C69.9422 20.696 70.2632 20.72 70.6232 20.732C70.9832 20.738 71.3522 20.756 71.7302 20.786C72.1082 20.816 72.4772 20.87 72.8372 20.948C73.1972 21.02 73.5182 21.137 73.8002 21.299C74.0822 21.461 74.3072 21.683 74.4752 21.965C74.6492 22.241 74.7362 22.598 74.7362 23.036C74.7362 23.444 74.6342 23.84 74.4302 24.224C74.2322 24.608 73.9412 24.95 73.5572 25.25C73.1792 25.55 72.7112 25.79 72.1532 25.97C71.6012 26.156 70.9712 26.249 70.2632 26.249C69.5672 26.249 68.9612 26.18 68.4452 26.042C67.9292 25.91 67.5002 25.73 67.1582 25.502C66.8162 25.28 66.5612 25.022 66.3932 24.728C66.2252 24.434 66.1412 24.128 66.1412 23.81C66.1412 23.378 66.2702 23.018 66.5282 22.73C66.7922 22.436 67.1522 22.202 67.6082 22.028C67.3622 21.902 67.1672 21.734 67.0232 21.524C66.8792 21.314 66.8072 21.038 66.8072 20.696C66.8072 20.558 66.8312 20.417 66.8792 20.273C66.9332 20.123 67.0082 19.976 67.1042 19.832C67.2062 19.688 67.3322 19.553 67.4822 19.427C67.6322 19.295 67.8092 19.178 68.0132 19.076C67.5452 18.824 67.1762 18.488 66.9062 18.068C66.6422 17.648 66.5102 17.156 66.5102 16.592C66.5102 16.136 66.6002 15.725 66.7802 15.359C66.9662 14.987 67.2212 14.672 67.5452 14.414C67.8752 14.15 68.2622 13.949 68.7062 13.811C69.1562 13.673 69.6452 13.604 70.1732 13.604C70.5692 13.604 70.9412 13.646 71.2892 13.73C71.6372 13.808 71.9552 13.925 72.2432 14.081H74.8982ZM78.558 9.626V23H76.335V9.626H78.558ZM86.7218 17.321C86.7218 17.033 86.6798 16.763 86.5958 16.511C86.5178 16.253 86.3978 16.028 86.2358 15.836C86.0738 15.644 85.8668 15.494 85.6148 15.386C85.3688 15.272 85.0808 15.215 84.7508 15.215C84.1088 15.215 83.6018 15.398 83.2298 15.764C82.8638 16.13 82.6298 16.649 82.5278 17.321H86.7218ZM82.4828 18.662C82.5188 19.136 82.6028 19.547 82.7348 19.895C82.8668 20.237 83.0408 20.522 83.2568 20.75C83.4728 20.972 83.7278 21.14 84.0218 21.254C84.3218 21.362 84.6518 21.416 85.0118 21.416C85.3718 21.416 85.6808 21.374 85.9388 21.29C86.2028 21.206 86.4308 21.113 86.6228 21.011C86.8208 20.909 86.9918 20.816 87.1358 20.732C87.2858 20.648 87.4298 20.606 87.5678 20.606C87.7538 20.606 87.8918 20.675 87.9818 20.813L88.6208 21.623C88.3748 21.911 88.0988 22.154 87.7928 22.352C87.4868 22.544 87.1658 22.7 86.8298 22.82C86.4998 22.934 86.1608 23.015 85.8128 23.063C85.4708 23.111 85.1378 23.135 84.8138 23.135C84.1718 23.135 83.5748 23.03 83.0228 22.82C82.4708 22.604 81.9908 22.289 81.5828 21.875C81.1748 21.455 80.8538 20.939 80.6198 20.327C80.3858 19.709 80.2688 18.995 80.2688 18.185C80.2688 17.555 80.3708 16.964 80.5748 16.412C80.7788 15.854 81.0698 15.371 81.4478 14.963C81.8318 14.549 82.2968 14.222 82.8428 13.982C83.3948 13.742 84.0158 13.622 84.7058 13.622C85.2878 13.622 85.8248 13.715 86.3168 13.901C86.8088 14.087 87.2318 14.36 87.5858 14.72C87.9398 15.074 88.2158 15.512 88.4138 16.034C88.6178 16.55 88.7198 17.141 88.7198 17.807C88.7198 18.143 88.6838 18.371 88.6118 18.491C88.5398 18.605 88.4018 18.662 88.1978 18.662H82.4828ZM92.611 20.606C92.863 20.912 93.136 21.128 93.43 21.254C93.73 21.38 94.045 21.443 94.375 21.443C94.717 21.443 95.023 21.383 95.293 21.263C95.569 21.137 95.803 20.945 95.995 20.687C96.187 20.423 96.334 20.09 96.436 19.688C96.538 19.28 96.589 18.794 96.589 18.23C96.589 17.216 96.421 16.484 96.085 16.034C95.749 15.578 95.266 15.35 94.636 15.35C94.21 15.35 93.838 15.449 93.52 15.647C93.202 15.839 92.899 16.112 92.611 16.466V20.606ZM92.611 14.9C92.983 14.51 93.394 14.201 93.844 13.973C94.3 13.739 94.819 13.622 95.401 13.622C95.935 13.622 96.415 13.727 96.841 13.937C97.273 14.147 97.639 14.45 97.939 14.846C98.245 15.236 98.479 15.71 98.641 16.268C98.803 16.826 98.884 17.453 98.884 18.149C98.884 18.899 98.791 19.58 98.605 20.192C98.419 20.804 98.152 21.329 97.804 21.767C97.462 22.199 97.048 22.535 96.562 22.775C96.076 23.015 95.536 23.135 94.942 23.135C94.654 23.135 94.393 23.105 94.159 23.045C93.925 22.991 93.709 22.913 93.511 22.811C93.313 22.709 93.13 22.586 92.962 22.442C92.8 22.292 92.644 22.127 92.494 21.947L92.395 22.568C92.359 22.724 92.296 22.835 92.206 22.901C92.122 22.967 92.005 23 91.855 23H90.388V9.626H92.611V14.9ZM102.698 15.368C102.986 14.816 103.328 14.384 103.724 14.072C104.12 13.754 104.588 13.595 105.128 13.595C105.554 13.595 105.896 13.688 106.154 13.874L106.01 15.539C105.98 15.647 105.935 15.725 105.875 15.773C105.821 15.815 105.746 15.836 105.65 15.836C105.56 15.836 105.425 15.821 105.245 15.791C105.071 15.761 104.9 15.746 104.732 15.746C104.486 15.746 104.267 15.782 104.075 15.854C103.883 15.926 103.709 16.031 103.553 16.169C103.403 16.301 103.268 16.463 103.148 16.655C103.034 16.847 102.926 17.066 102.824 17.312V23H100.601V13.766H101.906C102.134 13.766 102.293 13.808 102.383 13.892C102.473 13.97 102.533 14.114 102.563 14.324L102.698 15.368ZM112.071 19.058C111.429 19.088 110.889 19.145 110.451 19.229C110.013 19.307 109.662 19.409 109.398 19.535C109.134 19.661 108.945 19.808 108.831 19.976C108.717 20.144 108.66 20.327 108.66 20.525C108.66 20.915 108.774 21.194 109.002 21.362C109.236 21.53 109.539 21.614 109.911 21.614C110.367 21.614 110.76 21.533 111.09 21.371C111.426 21.203 111.753 20.951 112.071 20.615V19.058ZM106.977 15.053C108.039 14.081 109.317 13.595 110.811 13.595C111.351 13.595 111.834 13.685 112.26 13.865C112.686 14.039 113.046 14.285 113.34 14.603C113.634 14.915 113.856 15.29 114.006 15.728C114.162 16.166 114.24 16.646 114.24 17.168V23H113.232C113.022 23 112.86 22.97 112.746 22.91C112.632 22.844 112.542 22.715 112.476 22.523L112.278 21.857C112.044 22.067 111.816 22.253 111.594 22.415C111.372 22.571 111.141 22.703 110.901 22.811C110.661 22.919 110.403 23 110.127 23.054C109.857 23.114 109.557 23.144 109.227 23.144C108.837 23.144 108.477 23.093 108.147 22.991C107.817 22.883 107.532 22.724 107.292 22.514C107.052 22.304 106.866 22.043 106.734 21.731C106.602 21.419 106.536 21.056 106.536 20.642C106.536 20.408 106.575 20.177 106.653 19.949C106.731 19.715 106.857 19.493 107.031 19.283C107.211 19.073 107.442 18.875 107.724 18.689C108.006 18.503 108.351 18.341 108.759 18.203C109.173 18.065 109.653 17.954 110.199 17.87C110.745 17.78 111.369 17.726 112.071 17.708V17.168C112.071 16.55 111.939 16.094 111.675 15.8C111.411 15.5 111.03 15.35 110.532 15.35C110.172 15.35 109.872 15.392 109.632 15.476C109.398 15.56 109.191 15.656 109.011 15.764C108.831 15.866 108.666 15.959 108.516 16.043C108.372 16.127 108.21 16.169 108.03 16.169C107.874 16.169 107.742 16.13 107.634 16.052C107.526 15.968 107.439 15.872 107.373 15.764L106.977 15.053ZM118.556 9.626V17.285H118.97C119.12 17.285 119.237 17.267 119.321 17.231C119.411 17.189 119.501 17.108 119.591 16.988L121.886 14.153C121.982 14.027 122.087 13.931 122.201 13.865C122.321 13.799 122.474 13.766 122.66 13.766H124.694L121.823 17.195C121.619 17.465 121.397 17.672 121.157 17.816C121.283 17.906 121.394 18.011 121.49 18.131C121.592 18.251 121.688 18.38 121.778 18.518L124.856 23H122.849C122.675 23 122.525 22.973 122.399 22.919C122.273 22.859 122.168 22.754 122.084 22.604L119.726 19.103C119.642 18.965 119.555 18.875 119.465 18.833C119.375 18.791 119.24 18.77 119.06 18.77H118.556V23H116.333V9.626H118.556ZM131.423 17.321C131.423 17.033 131.381 16.763 131.297 16.511C131.219 16.253 131.099 16.028 130.937 15.836C130.775 15.644 130.568 15.494 130.316 15.386C130.07 15.272 129.782 15.215 129.452 15.215C128.81 15.215 128.303 15.398 127.931 15.764C127.565 16.13 127.331 16.649 127.229 17.321H131.423ZM127.184 18.662C127.22 19.136 127.304 19.547 127.436 19.895C127.568 20.237 127.742 20.522 127.958 20.75C128.174 20.972 128.429 21.14 128.723 21.254C129.023 21.362 129.353 21.416 129.713 21.416C130.073 21.416 130.382 21.374 130.64 21.29C130.904 21.206 131.132 21.113 131.324 21.011C131.522 20.909 131.693 20.816 131.837 20.732C131.987 20.648 132.131 20.606 132.269 20.606C132.455 20.606 132.593 20.675 132.683 20.813L133.322 21.623C133.076 21.911 132.8 22.154 132.494 22.352C132.188 22.544 131.867 22.7 131.531 22.82C131.201 22.934 130.862 23.015 130.514 23.063C130.172 23.111 129.839 23.135 129.515 23.135C128.873 23.135 128.276 23.03 127.724 22.82C127.172 22.604 126.692 22.289 126.284 21.875C125.876 21.455 125.555 20.939 125.321 20.327C125.087 19.709 124.97 18.995 124.97 18.185C124.97 17.555 125.072 16.964 125.276 16.412C125.48 15.854 125.771 15.371 126.149 14.963C126.533 14.549 126.998 14.222 127.544 13.982C128.096 13.742 128.717 13.622 129.407 13.622C129.989 13.622 130.526 13.715 131.018 13.901C131.51 14.087 131.933 14.36 132.287 14.72C132.641 15.074 132.917 15.512 133.115 16.034C133.319 16.55 133.421 17.141 133.421 17.807C133.421 18.143 133.385 18.371 133.313 18.491C133.241 18.605 133.103 18.662 132.899 18.662H127.184ZM138.079 23.144C137.275 23.144 136.657 22.919 136.225 22.469C135.799 22.013 135.586 21.386 135.586 20.588V15.431H134.641C134.521 15.431 134.419 15.392 134.335 15.314C134.251 15.236 134.209 15.119 134.209 14.963V14.081L135.694 13.838L136.162 11.318C136.192 11.198 136.249 11.105 136.333 11.039C136.417 10.973 136.525 10.94 136.657 10.94H137.809V13.847H140.275V15.431H137.809V20.435C137.809 20.723 137.878 20.948 138.016 21.11C138.16 21.272 138.355 21.353 138.601 21.353C138.739 21.353 138.853 21.338 138.943 21.308C139.039 21.272 139.12 21.236 139.186 21.2C139.258 21.164 139.321 21.131 139.375 21.101C139.429 21.065 139.483 21.047 139.537 21.047C139.603 21.047 139.657 21.065 139.699 21.101C139.741 21.131 139.786 21.179 139.834 21.245L140.5 22.325C140.176 22.595 139.804 22.799 139.384 22.937C138.964 23.075 138.529 23.144 138.079 23.144Z" fill="black"/>
<circle cx="18.5" cy="18.5" r="18.5" fill="black"/>
<path d="M12.5895 18.255C12.2918 18.4007 11.9657 18.5147 11.611 18.597C11.9657 18.6793 12.2918 18.7933 12.5895 18.939L16.038 20.7155C16.1837 20.7852 16.2882 20.8738 16.3515 20.9815C16.4148 21.0892 16.4465 21.2063 16.4465 21.333V23.005L8.91302 19.072V18.122L16.4465 14.1985V15.8705C16.4465 15.9972 16.4148 16.1143 16.3515 16.222C16.2882 16.3233 16.1837 16.412 16.038 16.488L12.5895 18.255ZM28.0855 18.122V19.072L20.552 23.005V21.333C20.552 21.2063 20.5837 21.0892 20.647 20.9815C20.7103 20.8738 20.8148 20.7852 20.9605 20.7155L24.409 18.939C24.7067 18.7933 25.0328 18.6793 25.3875 18.597C25.0328 18.5147 24.7067 18.4007 24.409 18.255L20.9605 16.488C20.8148 16.412 20.7103 16.3233 20.647 16.222C20.5837 16.1143 20.552 15.9972 20.552 15.8705V14.1985L28.0855 18.122Z" fill="#F1C013"/>
</svg>
