<svg width="435" height="90" viewBox="0 0 435 90" fill="none" xmlns="http://www.w3.org/2000/svg">
<path d="M16.14 48.7C15.2 49.16 14.17 49.52 13.05 49.78C14.17 50.04 15.2 50.4 16.14 50.86L27.03 56.47C27.49 56.69 27.82 56.97 28.02 57.31C28.22 57.65 28.32 58.02 28.32 58.42V63.7L4.53 51.28V48.28L28.32 35.89V41.17C28.32 41.57 28.22 41.94 28.02 42.28C27.82 42.6 27.49 42.88 27.03 43.12L16.14 48.7Z" fill="#F1C013"/>
<path d="M64.918 52.86C62.778 52.96 60.978 53.15 59.518 53.43C58.058 53.69 56.888 54.03 56.008 54.45C55.128 54.87 54.498 55.36 54.118 55.92C53.738 56.48 53.548 57.09 53.548 57.75C53.548 59.05 53.928 59.98 54.688 60.54C55.468 61.1 56.478 61.38 57.718 61.38C59.238 61.38 60.548 61.11 61.648 60.57C62.768 60.01 63.858 59.17 64.918 58.05V52.86ZM47.938 39.51C51.478 36.27 55.738 34.65 60.718 34.65C62.518 34.65 64.128 34.95 65.548 35.55C66.968 36.13 68.168 36.95 69.148 38.01C70.128 39.05 70.868 40.3 71.368 41.76C71.888 43.22 72.148 44.82 72.148 46.56V66H68.788C68.088 66 67.548 65.9 67.168 65.7C66.788 65.48 66.488 65.05 66.268 64.41L65.608 62.19C64.828 62.89 64.068 63.51 63.328 64.05C62.588 64.57 61.818 65.01 61.018 65.37C60.218 65.73 59.358 66 58.438 66.18C57.538 66.38 56.538 66.48 55.438 66.48C54.138 66.48 52.938 66.31 51.838 65.97C50.738 65.61 49.788 65.08 48.988 64.38C48.188 63.68 47.568 62.81 47.128 61.77C46.688 60.73 46.468 59.52 46.468 58.14C46.468 57.36 46.598 56.59 46.858 55.83C47.118 55.05 47.538 54.31 48.118 53.61C48.718 52.91 49.488 52.25 50.428 51.63C51.368 51.01 52.518 50.47 53.878 50.01C55.258 49.55 56.858 49.18 58.678 48.9C60.498 48.6 62.578 48.42 64.918 48.36V46.56C64.918 44.5 64.478 42.98 63.598 42C62.718 41 61.448 40.5 59.788 40.5C58.588 40.5 57.588 40.64 56.788 40.92C56.008 41.2 55.318 41.52 54.718 41.88C54.118 42.22 53.568 42.53 53.068 42.81C52.588 43.09 52.048 43.23 51.448 43.23C50.928 43.23 50.488 43.1 50.128 42.84C49.768 42.56 49.478 42.24 49.258 41.88L47.938 39.51ZM86.0568 39C86.6768 38.38 87.3268 37.81 88.0068 37.29C88.7068 36.75 89.4368 36.3 90.1968 35.94C90.9768 35.56 91.8068 35.27 92.6868 35.07C93.5668 34.85 94.5268 34.74 95.5668 34.74C97.2468 34.74 98.7368 35.03 100.037 35.61C101.337 36.17 102.417 36.97 103.277 38.01C104.157 39.03 104.817 40.26 105.257 41.7C105.717 43.12 105.947 44.69 105.947 46.41V66H98.5368V46.41C98.5368 44.53 98.1068 43.08 97.2468 42.06C96.3868 41.02 95.0768 40.5 93.3168 40.5C92.0368 40.5 90.8368 40.79 89.7168 41.37C88.5968 41.95 87.5368 42.74 86.5368 43.74V66H79.1268V35.22H83.6568C84.6168 35.22 85.2468 35.67 85.5468 36.57L86.0568 39ZM124.244 49.86C125.164 49.86 125.964 49.74 126.644 49.5C127.324 49.24 127.884 48.89 128.324 48.45C128.784 48.01 129.124 47.48 129.344 46.86C129.584 46.24 129.704 45.56 129.704 44.82C129.704 43.3 129.244 42.1 128.324 41.22C127.424 40.32 126.064 39.87 124.244 39.87C122.424 39.87 121.054 40.32 120.134 41.22C119.234 42.1 118.784 43.3 118.784 44.82C118.784 45.54 118.894 46.21 119.114 46.83C119.354 47.45 119.694 47.99 120.134 48.45C120.594 48.89 121.164 49.24 121.844 49.5C122.544 49.74 123.344 49.86 124.244 49.86ZM132.614 67.38C132.614 66.78 132.434 66.29 132.074 65.91C131.714 65.53 131.224 65.24 130.604 65.04C129.984 64.82 129.254 64.66 128.414 64.56C127.594 64.46 126.714 64.39 125.774 64.35C124.854 64.29 123.894 64.24 122.894 64.2C121.914 64.16 120.954 64.08 120.014 63.96C119.194 64.42 118.524 64.96 118.004 65.58C117.504 66.2 117.254 66.92 117.254 67.74C117.254 68.28 117.384 68.78 117.644 69.24C117.924 69.72 118.354 70.13 118.934 70.47C119.534 70.81 120.304 71.07 121.244 71.25C122.184 71.45 123.334 71.55 124.694 71.55C126.074 71.55 127.264 71.44 128.264 71.22C129.264 71.02 130.084 70.73 130.724 70.35C131.384 69.99 131.864 69.55 132.164 69.03C132.464 68.53 132.614 67.98 132.614 67.38ZM139.994 36.27V39.03C139.994 39.91 139.464 40.45 138.404 40.65L135.644 41.16C136.064 42.22 136.274 43.38 136.274 44.64C136.274 46.16 135.964 47.54 135.344 48.78C134.744 50 133.904 51.04 132.824 51.9C131.744 52.76 130.464 53.43 128.984 53.91C127.524 54.37 125.944 54.6 124.244 54.6C123.644 54.6 123.064 54.57 122.504 54.51C121.944 54.45 121.394 54.37 120.854 54.27C119.894 54.85 119.414 55.5 119.414 56.22C119.414 56.84 119.694 57.3 120.254 57.6C120.834 57.88 121.594 58.08 122.534 58.2C123.474 58.32 124.544 58.4 125.744 58.44C126.944 58.46 128.174 58.52 129.434 58.62C130.694 58.72 131.924 58.9 133.124 59.16C134.324 59.4 135.394 59.79 136.334 60.33C137.274 60.87 138.024 61.61 138.584 62.55C139.164 63.47 139.454 64.66 139.454 66.12C139.454 67.48 139.114 68.8 138.434 70.08C137.774 71.36 136.804 72.5 135.524 73.5C134.264 74.5 132.704 75.3 130.844 75.9C129.004 76.52 126.904 76.83 124.544 76.83C122.224 76.83 120.204 76.6 118.484 76.14C116.764 75.7 115.334 75.1 114.194 74.34C113.054 73.6 112.204 72.74 111.644 71.76C111.084 70.78 110.804 69.76 110.804 68.7C110.804 67.26 111.234 66.06 112.094 65.1C112.974 64.12 114.174 63.34 115.694 62.76C114.874 62.34 114.224 61.78 113.744 61.08C113.264 60.38 113.024 59.46 113.024 58.32C113.024 57.86 113.104 57.39 113.264 56.91C113.444 56.41 113.694 55.92 114.014 55.44C114.354 54.96 114.774 54.51 115.274 54.09C115.774 53.65 116.364 53.26 117.044 52.92C115.484 52.08 114.254 50.96 113.354 49.56C112.474 48.16 112.034 46.52 112.034 44.64C112.034 43.12 112.334 41.75 112.934 40.53C113.554 39.29 114.404 38.24 115.484 37.38C116.584 36.5 117.874 35.83 119.354 35.37C120.854 34.91 122.484 34.68 124.244 34.68C125.564 34.68 126.804 34.82 127.964 35.1C129.124 35.36 130.184 35.75 131.144 36.27H139.994ZM152.193 21.42V66H144.783V21.42H152.193ZM179.406 47.07C179.406 46.11 179.266 45.21 178.986 44.37C178.726 43.51 178.326 42.76 177.786 42.12C177.246 41.48 176.556 40.98 175.716 40.62C174.896 40.24 173.936 40.05 172.836 40.05C170.696 40.05 169.006 40.66 167.766 41.88C166.546 43.1 165.766 44.83 165.426 47.07H179.406ZM165.276 51.54C165.396 53.12 165.676 54.49 166.116 55.65C166.556 56.79 167.136 57.74 167.856 58.5C168.576 59.24 169.426 59.8 170.406 60.18C171.406 60.54 172.506 60.72 173.706 60.72C174.906 60.72 175.936 60.58 176.796 60.3C177.676 60.02 178.436 59.71 179.076 59.37C179.736 59.03 180.306 58.72 180.786 58.44C181.286 58.16 181.766 58.02 182.226 58.02C182.846 58.02 183.306 58.25 183.606 58.71L185.736 61.41C184.916 62.37 183.996 63.18 182.976 63.84C181.956 64.48 180.886 65 179.766 65.4C178.666 65.78 177.536 66.05 176.376 66.21C175.236 66.37 174.126 66.45 173.046 66.45C170.906 66.45 168.916 66.1 167.076 65.4C165.236 64.68 163.636 63.63 162.276 62.25C160.916 60.85 159.846 59.13 159.066 57.09C158.286 55.03 157.896 52.65 157.896 49.95C157.896 47.85 158.236 45.88 158.916 44.04C159.596 42.18 160.566 40.57 161.826 39.21C163.106 37.83 164.656 36.74 166.476 35.94C168.316 35.14 170.386 34.74 172.686 34.74C174.626 34.74 176.416 35.05 178.056 35.67C179.696 36.29 181.106 37.2 182.286 38.4C183.466 39.58 184.386 41.04 185.046 42.78C185.726 44.5 186.066 46.47 186.066 48.69C186.066 49.81 185.946 50.57 185.706 50.97C185.466 51.35 185.006 51.54 184.326 51.54H165.276ZM199.037 58.02C199.877 59.04 200.787 59.76 201.767 60.18C202.767 60.6 203.817 60.81 204.917 60.81C206.057 60.81 207.077 60.61 207.977 60.21C208.897 59.79 209.677 59.15 210.317 58.29C210.957 57.41 211.447 56.3 211.787 54.96C212.127 53.6 212.297 51.98 212.297 50.1C212.297 46.72 211.737 44.28 210.617 42.78C209.497 41.26 207.887 40.5 205.787 40.5C204.367 40.5 203.127 40.83 202.067 41.49C201.007 42.13 199.997 43.04 199.037 44.22V58.02ZM199.037 39C200.277 37.7 201.647 36.67 203.147 35.91C204.667 35.13 206.397 34.74 208.337 34.74C210.117 34.74 211.717 35.09 213.137 35.79C214.577 36.49 215.797 37.5 216.797 38.82C217.817 40.12 218.597 41.7 219.137 43.56C219.677 45.42 219.947 47.51 219.947 49.83C219.947 52.33 219.637 54.6 219.017 56.64C218.397 58.68 217.507 60.43 216.347 61.89C215.207 63.33 213.827 64.45 212.207 65.25C210.587 66.05 208.787 66.45 206.807 66.45C205.847 66.45 204.977 66.35 204.197 66.15C203.417 65.97 202.697 65.71 202.037 65.37C201.377 65.03 200.767 64.62 200.207 64.14C199.667 63.64 199.147 63.09 198.647 62.49L198.317 64.56C198.197 65.08 197.987 65.45 197.687 65.67C197.407 65.89 197.017 66 196.517 66H191.627V21.42H199.037V39ZM232.66 40.56C233.62 38.72 234.76 37.28 236.08 36.24C237.4 35.18 238.96 34.65 240.76 34.65C242.18 34.65 243.32 34.96 244.18 35.58L243.7 41.13C243.6 41.49 243.45 41.75 243.25 41.91C243.07 42.05 242.82 42.12 242.5 42.12C242.2 42.12 241.75 42.07 241.15 41.97C240.57 41.87 240 41.82 239.44 41.82C238.62 41.82 237.89 41.94 237.25 42.18C236.61 42.42 236.03 42.77 235.51 43.23C235.01 43.67 234.56 44.21 234.16 44.85C233.78 45.49 233.42 46.22 233.08 47.04V66H225.67V35.22H230.02C230.78 35.22 231.31 35.36 231.61 35.64C231.91 35.9 232.11 36.38 232.21 37.08L232.66 40.56ZM263.902 52.86C261.762 52.96 259.962 53.15 258.502 53.43C257.042 53.69 255.872 54.03 254.992 54.45C254.112 54.87 253.482 55.36 253.102 55.92C252.722 56.48 252.532 57.09 252.532 57.75C252.532 59.05 252.912 59.98 253.672 60.54C254.452 61.1 255.462 61.38 256.702 61.38C258.222 61.38 259.532 61.11 260.632 60.57C261.752 60.01 262.842 59.17 263.902 58.05V52.86ZM246.922 39.51C250.462 36.27 254.722 34.65 259.702 34.65C261.502 34.65 263.112 34.95 264.532 35.55C265.952 36.13 267.152 36.95 268.132 38.01C269.112 39.05 269.852 40.3 270.352 41.76C270.872 43.22 271.132 44.82 271.132 46.56V66H267.772C267.072 66 266.532 65.9 266.152 65.7C265.772 65.48 265.472 65.05 265.252 64.41L264.592 62.19C263.812 62.89 263.052 63.51 262.312 64.05C261.572 64.57 260.802 65.01 260.002 65.37C259.202 65.73 258.342 66 257.422 66.18C256.522 66.38 255.522 66.48 254.422 66.48C253.122 66.48 251.922 66.31 250.822 65.97C249.722 65.61 248.772 65.08 247.972 64.38C247.172 63.68 246.552 62.81 246.112 61.77C245.672 60.73 245.452 59.52 245.452 58.14C245.452 57.36 245.582 56.59 245.842 55.83C246.102 55.05 246.522 54.31 247.102 53.61C247.702 52.91 248.472 52.25 249.412 51.63C250.352 51.01 251.502 50.47 252.862 50.01C254.242 49.55 255.842 49.18 257.662 48.9C259.482 48.6 261.562 48.42 263.902 48.36V46.56C263.902 44.5 263.462 42.98 262.582 42C261.702 41 260.432 40.5 258.772 40.5C257.572 40.5 256.572 40.64 255.772 40.92C254.992 41.2 254.302 41.52 253.702 41.88C253.102 42.22 252.552 42.53 252.052 42.81C251.572 43.09 251.032 43.23 250.432 43.23C249.912 43.23 249.472 43.1 249.112 42.84C248.752 42.56 248.462 42.24 248.242 41.88L246.922 39.51ZM285.521 21.42V46.95H286.901C287.401 46.95 287.791 46.89 288.071 46.77C288.371 46.63 288.671 46.36 288.971 45.96L296.621 36.51C296.941 36.09 297.291 35.77 297.671 35.55C298.071 35.33 298.581 35.22 299.201 35.22H305.981L296.411 46.65C295.731 47.55 294.991 48.24 294.191 48.72C294.611 49.02 294.981 49.37 295.301 49.77C295.641 50.17 295.961 50.6 296.261 51.06L306.521 66H299.831C299.251 66 298.751 65.91 298.331 65.73C297.911 65.53 297.561 65.18 297.281 64.68L289.421 53.01C289.141 52.55 288.851 52.25 288.551 52.11C288.251 51.97 287.801 51.9 287.201 51.9H285.521V66H278.111V21.42H285.521ZM328.41 47.07C328.41 46.11 328.27 45.21 327.99 44.37C327.73 43.51 327.33 42.76 326.79 42.12C326.25 41.48 325.56 40.98 324.72 40.62C323.9 40.24 322.94 40.05 321.84 40.05C319.7 40.05 318.01 40.66 316.77 41.88C315.55 43.1 314.77 44.83 314.43 47.07H328.41ZM314.28 51.54C314.4 53.12 314.68 54.49 315.12 55.65C315.56 56.79 316.14 57.74 316.86 58.5C317.58 59.24 318.43 59.8 319.41 60.18C320.41 60.54 321.51 60.72 322.71 60.72C323.91 60.72 324.94 60.58 325.8 60.3C326.68 60.02 327.44 59.71 328.08 59.37C328.74 59.03 329.31 58.72 329.79 58.44C330.29 58.16 330.77 58.02 331.23 58.02C331.85 58.02 332.31 58.25 332.61 58.71L334.74 61.41C333.92 62.37 333 63.18 331.98 63.84C330.96 64.48 329.89 65 328.77 65.4C327.67 65.78 326.54 66.05 325.38 66.21C324.24 66.37 323.13 66.45 322.05 66.45C319.91 66.45 317.92 66.1 316.08 65.4C314.24 64.68 312.64 63.63 311.28 62.25C309.92 60.85 308.85 59.13 308.07 57.09C307.29 55.03 306.9 52.65 306.9 49.95C306.9 47.85 307.24 45.88 307.92 44.04C308.6 42.18 309.57 40.57 310.83 39.21C312.11 37.83 313.66 36.74 315.48 35.94C317.32 35.14 319.39 34.74 321.69 34.74C323.63 34.74 325.42 35.05 327.06 35.67C328.7 36.29 330.11 37.2 331.29 38.4C332.47 39.58 333.39 41.04 334.05 42.78C334.73 44.5 335.07 46.47 335.07 48.69C335.07 49.81 334.95 50.57 334.71 50.97C334.47 51.35 334.01 51.54 333.33 51.54H314.28ZM350.598 66.48C347.918 66.48 345.858 65.73 344.418 64.23C342.998 62.71 342.288 60.62 342.288 57.96V40.77H339.138C338.738 40.77 338.398 40.64 338.118 40.38C337.838 40.12 337.698 39.73 337.698 39.21V36.27L342.648 35.46L344.208 27.06C344.308 26.66 344.498 26.35 344.778 26.13C345.058 25.91 345.418 25.8 345.858 25.8H349.698V35.49H357.918V40.77H349.698V57.45C349.698 58.41 349.928 59.16 350.388 59.7C350.868 60.24 351.518 60.51 352.338 60.51C352.798 60.51 353.178 60.46 353.478 60.36C353.798 60.24 354.068 60.12 354.288 60C354.528 59.88 354.738 59.77 354.918 59.67C355.098 59.55 355.278 59.49 355.458 59.49C355.678 59.49 355.858 59.55 355.998 59.67C356.138 59.77 356.288 59.93 356.448 60.15L358.668 63.75C357.588 64.65 356.348 65.33 354.948 65.79C353.548 66.25 352.098 66.48 350.598 66.48Z" fill="white"/>
<path d="M379.82 66.09C379.48 67.01 378.93 67.7 378.17 68.16C377.43 68.62 376.67 68.85 375.89 68.85H372.74L390.26 24.03C390.58 23.19 391.07 22.55 391.73 22.11C392.39 21.65 393.16 21.42 394.04 21.42H397.22L379.82 66.09ZM423.219 44.28V47.28L399.429 59.7V54.42C399.429 54.02 399.529 53.65 399.729 53.31C399.929 52.97 400.259 52.69 400.719 52.47L411.609 46.86C412.549 46.4 413.579 46.04 414.699 45.78C413.579 45.52 412.549 45.16 411.609 44.7L400.719 39.12C400.259 38.88 399.929 38.6 399.729 38.28C399.529 37.94 399.429 37.57 399.429 37.17V31.89L423.219 44.28Z" fill="#F1C013"/>
</svg>
